<svg xmlns="http://www.w3.org/2000/svg" width="13" height="16" viewBox="0 0 13 16"><g><g opacity=".3"><path d="M6.894 0C2.31 0 0 3.132 0 5.743c0 1.58.628 2.987 1.975 3.51.221.087.42.004.483-.23.045-.16.15-.567.197-.737.065-.23.04-.31-.139-.512-.388-.437-.637-1.001-.637-1.802 0-2.323 1.824-4.402 4.75-4.402 2.59 0 4.013 1.508 4.013 3.522 0 2.65-1.231 4.887-3.058 4.887-1.01 0-1.764-.795-1.523-1.77.29-1.165.852-2.421.852-3.262 0-.752-.424-1.38-1.3-1.38-1.032 0-1.861 1.017-1.861 2.379 0 .868.307 1.455.307 1.455l-1.24 5.008c-.369 1.486-.056 3.308-.029 3.492.016.109.163.135.23.053.094-.119 1.323-1.564 1.74-3.008.12-.409.679-2.526.679-2.526.335.61 1.315 1.145 2.357 1.145 3.1 0 5.204-2.693 5.204-6.298C13 2.54 10.577 0 6.894 0z"/></g></g></svg>