<svg xmlns="http://www.w3.org/2000/svg" width="16" height="13" viewBox="0 0 16 13"><g><g opacity=".3"><path d="M16 1.54a6.554 6.554 0 0 1-1.886.516A3.29 3.29 0 0 0 15.557.24a6.596 6.596 0 0 1-2.085.797A3.283 3.283 0 0 0 7.878 4.03 9.321 9.321 0 0 1 1.11.6a3.28 3.28 0 0 0 1.016 4.382A3.27 3.27 0 0 1 .64 4.572v.042a3.285 3.285 0 0 0 2.634 3.218 3.31 3.31 0 0 1-1.483.056 3.286 3.286 0 0 0 3.067 2.28 6.587 6.587 0 0 1-4.861 1.358 9.293 9.293 0 0 0 5.033 1.475c6.04 0 9.342-5.001 9.342-9.338 0-.143-.003-.285-.01-.425A6.65 6.65 0 0 0 16 1.54z"/></g></g></svg>