<svg xmlns="http://www.w3.org/2000/svg" width="18" height="16" viewBox="0 0 18 16"><g><g opacity=".3"><path d="M18 6.869v.765a.374.374 0 0 1-.375.371H14.91v2.687c0 .205-.168.371-.375.371h-.773a.373.373 0 0 1-.376-.37V8.005h-2.714a.374.374 0 0 1-.376-.372V6.87c0-.205.17-.372.376-.372h2.714V3.812c0-.205.168-.371.376-.371h.773c.207 0 .375.166.375.37v2.686h2.714c.206 0 .375.167.375.372zm-7.668 5.356c0 1.591-1.224 2.97-3.116 3.514A7.095 7.095 0 0 1 5.263 16a9.038 9.038 0 0 1-2.19-.26C1.741 15.41.756 14.78.297 13.967A2.245 2.245 0 0 1 0 12.855c0-.4.097-.804.287-1.204.73-1.538 2.65-2.572 4.78-2.572h.061a1.849 1.849 0 0 1-.258-.941c0-.164.022-.33.066-.5-2.233-.05-3.904-1.667-3.904-3.802C1.032 2.33 2.25.863 3.99.27A4.895 4.895 0 0 1 5.563 0h4.775c.163 0 .306.104.357.257a.367.367 0 0 1-.137.415l-1.068.765a.375.375 0 0 1-.22.07h-.383c.493.586.783 1.42.783 2.359 0 1.035-.53 2.014-1.491 2.76-.744.573-.774.73-.774 1.058.01.18.528.766 1.099 1.167 1.331.932 1.827 1.846 1.828 3.373zm-5.078 2.277c2.057 0 3.099-.701 3.099-2.084 0-.132-.016-.267-.049-.402-.138-.538-.636-.873-1.389-1.381l-.322-.219a3.673 3.673 0 0 0-1.024-.154h-.044c-1.625 0-3.051.975-3.051 2.085 0 1.209 1.22 2.155 2.78 2.155zM3.497 3.78c.185 1.398 1.216 2.606 2.25 2.638h.018c.388 0 .716-.152.971-.44.398-.449.575-1.185.47-1.97-.185-1.399-1.195-2.563-2.25-2.594h-.043c-.374 0-.706.151-.96.438-.393.444-.56 1.147-.456 1.928z"/></g></g></svg>