<svg xmlns="http://www.w3.org/2000/svg" width="23" height="23" viewBox="0 0 23 23"><g><g opacity=".5"><path fill="#45413e" d="M23 8.625a8.625 8.625 0 0 1-12.662 7.62l-5.995 5.993.001.002A2.537 2.537 0 1 1 .76 18.656l-.005-.005 5.998-5.995A8.577 8.577 0 0 1 5.75 8.625a8.626 8.626 0 0 1 17.25 0zm-13.758 6.92a8.696 8.696 0 0 1-1.793-1.795l-5.797 5.798.006.005a1.263 1.263 0 1 0 1.788 1.788zm12.32-6.92a7.188 7.188 0 0 0-14.375 0 7.189 7.189 0 0 0 14.376 0zm-6.828-4.672a.36.36 0 0 1-.359.36 4.312 4.312 0 0 0-4.312 4.312.36.36 0 0 1-.72 0 5.031 5.031 0 0 1 5.032-5.032c.198 0 .36.161.36.36z"/></g></g></svg>