<svg xmlns="http://www.w3.org/2000/svg" width="61" height="59" viewBox="0 0 61 59"><g><g><path fill="#84bc22" d="M13.796 18.918l6.625 12.36-3.818-2.079-5.053 8.317c-2.808.038-5.812-.088-7.749-1.155-1.966-1.084-5.053-4.197-3.256-7.393l3.593-6.93L.32 19.033zM9.304 39.234l16.395.116v14.44h-8.647c-3.219.076-6.326-.425-7.973-2.542L.882 36c2.545 2.85 5.876 3.388 8.422 3.234zm36.72-19.412l-13.95-.158 3.658-2.354-4.776-8.482c1.328-2.49 2.895-5.075 4.76-6.263 1.895-1.207 6.096-2.415 8.001.717l4.28 6.524 4.46-1.906zM30.552 6.017l-8.05 14.381-12.543-7 4.192-7.614c1.494-2.872 3.435-5.365 6.073-5.789l17.22.174c-3.709.86-5.792 3.532-6.892 5.848zm.403 41.543l6.9-12.206.272 4.361 9.683-.092c1.52 2.376 3.006 5.009 3.133 7.227.13 2.254-.857 6.54-4.5 6.698l-7.743.605-.507 4.852zm19.493-6.93l-8.59-14.06 12.162-7.652 4.582 7.383c1.77 2.708 2.995 5.626 2.084 8.154l-8.5 15.08c1.052-3.684-.26-6.814-1.738-8.905z"/></g></g></svg>